<svg xmlns="http://www.w3.org/2000/svg" viewBox="0 0 150 150" role="img" aria-labelledby="iconTitle iconDesc">
  <title id="iconTitle">Oakline Tree Icon</title>
  <desc id="iconDesc">Premium tree mark for Oakline.</desc>
  <defs>
    <linearGradient id="leafTone" x1="0" x2="1" y1="0" y2="1">
      <stop offset="0" stop-color="#B8D63D"/>
      <stop offset="0.42" stop-color="#2D6E54"/>
      <stop offset="1" stop-color="#1F5A43"/>
    </linearGradient>
  </defs>
  <g fill="none" fill-rule="evenodd">
    <circle cx="75" cy="75" r="62" fill="#0F1111" stroke="#2D6E54" stroke-width="4"/>
    <path d="M77 27c-24 0-43 17-43 38 0 16 10 28 24 34-5 6-12 10-22 11 16 8 34 4 45-7 28-2 49-19 49-40 0-20-23-36-53-36Z" fill="url(#leafTone)"/>
    <path d="M75 55c1 19-2 39-10 61h20c-6-22-8-42-7-61" stroke="#F5F7F3" stroke-width="7" stroke-linecap="round"/>
    <path d="M77 74c-12-6-22-13-31-24M78 72c14-8 25-17 34-28" stroke="#F5F7F3" stroke-width="5" stroke-linecap="round"/>
  </g>
</svg>
