<svg xmlns="http://www.w3.org/2000/svg" viewBox="0 0 520 150" role="img" aria-labelledby="logoTitle logoDesc">
  <title id="logoTitle">Oakline</title>
  <desc id="logoDesc">Premium tree mark and Oakline wordmark.</desc>
  <defs>
    <linearGradient id="leafTone" x1="0" x2="1" y1="0" y2="1">
      <stop offset="0" stop-color="#B8D63D"/>
      <stop offset="0.42" stop-color="#2D6E54"/>
      <stop offset="1" stop-color="#1F5A43"/>
    </linearGradient>
  </defs>
  <g fill="none" fill-rule="evenodd">
    <circle cx="74" cy="74" r="62" fill="#0F1111" stroke="#2D6E54" stroke-width="4"/>
    <path d="M76 26c-24 0-43 17-43 38 0 16 10 28 24 34-5 6-12 10-22 11 16 8 34 4 45-7 28-2 49-19 49-40 0-20-23-36-53-36Z" fill="url(#leafTone)"/>
    <path d="M74 54c1 19-2 39-10 61h20c-6-22-8-42-7-61" stroke="#F5F7F3" stroke-width="7" stroke-linecap="round"/>
    <path d="M76 73c-12-6-22-13-31-24M77 71c14-8 25-17 34-28" stroke="#F5F7F3" stroke-width="5" stroke-linecap="round"/>
    <text x="158" y="94" fill="#F5F7F3" font-family="Sora, Manrope, Inter, Arial, sans-serif" font-size="57" font-weight="800" letter-spacing="0">Oakline</text>
    <path d="M163 124h284" stroke="#B8D63D" stroke-width="5" stroke-linecap="round"/>
  </g>
</svg>
